<svg width="242" height="33" viewBox="0 0 242 33" fill="none" xmlns="http://www.w3.org/2000/svg">
<path fill-rule="evenodd" clip-rule="evenodd" d="M2.41312 0.09375C1.08039 0.09375 0 1.17414 0 2.50687V29.6806C0 31.0134 1.08039 32.0938 2.41312 32.0938H29.587C30.9197 32.0938 32.0001 31.0134 32.0001 29.6806V2.50687C32.0001 1.17414 30.9197 0.09375 29.587 0.09375H2.41312ZM21.2582 18.2476C20.753 17.5922 20.084 17.1758 19.2512 16.9983C19.9884 16.7798 20.5755 16.3907 21.0124 15.8309C21.463 15.2711 21.6883 14.568 21.6883 13.7215C21.6883 12.5746 21.2719 11.6666 20.439 10.9976C19.6198 10.3286 18.4797 9.99411 17.0188 9.99411H10.5471V24.3711H17.2441C18.746 24.3711 19.9133 24.0229 20.7462 23.3266C21.5927 22.6166 22.016 21.6609 22.016 20.4594C22.016 19.6266 21.7634 18.8893 21.2582 18.2476ZM16.343 15.8104H14.0492V12.7999H16.343C16.9164 12.7999 17.3533 12.9296 17.6537 13.189C17.9677 13.4484 18.1248 13.8239 18.1248 14.3154C18.1248 14.8069 17.9677 15.1824 17.6537 15.4418C17.3533 15.6876 16.9164 15.8104 16.343 15.8104ZM17.9814 21.1557C17.6674 21.4151 17.2168 21.5448 16.6297 21.5448H14.0492V18.3704H16.5887C17.1758 18.3704 17.6332 18.5138 17.9609 18.8005C18.3022 19.0872 18.4729 19.4832 18.4729 19.9884C18.4729 20.4935 18.3091 20.8827 17.9814 21.1557ZM212.352 0.0937653C211.02 0.0937653 209.939 1.17415 209.939 2.50688V29.6807C209.939 31.0134 211.02 32.0938 212.352 32.0938H239.526C240.859 32.0938 241.939 31.0134 241.939 29.6807V2.50688C241.939 1.17416 240.859 0.0937653 239.526 0.0937653H212.352ZM227.924 23.3711L233.024 8.99412H229.317L225.733 19.8485L222.169 8.99412H218.442L223.541 23.3711H227.924ZM34.9896 2.50688C34.9896 1.17415 36.07 0.0937614 37.4027 0.0937614H64.5766C65.9093 0.0937614 66.9897 1.17415 66.9897 2.50688V29.6807C66.9897 31.0134 65.9093 32.0938 64.5766 32.0938H37.4027C36.07 32.0938 34.9896 31.0134 34.9896 29.6807V2.50688ZM57.868 9.99411L52.8914 19.6197V24.3711H49.3893V19.6197L44.4126 9.99411H48.3858L51.1711 16.0152L53.9359 9.99411H57.868ZM72.3911 0.09375C71.0584 0.09375 69.978 1.17414 69.978 2.50687V29.6806C69.978 31.0134 71.0584 32.0938 72.3911 32.0938H99.565C100.898 32.0938 101.978 31.0134 101.978 29.6806V2.50687C101.978 1.17414 100.898 0.09375 99.565 0.09375H72.3911ZM91.5081 12.7999V9.99411H80.3875V12.7999H84.1968V24.3711H87.6989V12.7999H91.5081ZM104.968 2.50687C104.968 1.17414 106.049 0.09375 107.382 0.09375H134.555C135.888 0.09375 136.969 1.17414 136.969 2.50687V29.6806C136.969 31.0134 135.888 32.0938 134.555 32.0938H107.382C106.049 32.0938 104.968 31.0134 104.968 29.6806V2.50687ZM121.999 23.5145C120.947 23.5145 120.005 23.3438 119.172 23.0025C118.34 22.6611 117.671 22.1559 117.165 21.4869C116.674 20.8179 116.414 20.0124 116.387 19.0703H120.115C120.169 19.6028 120.353 20.0124 120.668 20.2991C120.982 20.5722 121.391 20.7087 121.896 20.7087C122.415 20.7087 122.825 20.5926 123.125 20.3605C123.425 20.1148 123.576 19.7803 123.576 19.357C123.576 19.002 123.453 18.7085 123.207 18.4764C122.975 18.2443 122.681 18.0531 122.326 17.9029C121.985 17.7527 121.494 17.5821 120.852 17.3909C119.923 17.1042 119.166 16.8175 118.579 16.5308C117.991 16.244 117.486 15.8208 117.063 15.261C116.64 14.7012 116.428 13.9708 116.428 13.0696C116.428 11.7316 116.913 10.6871 117.882 9.93619C118.852 9.1716 120.115 8.78931 121.671 8.78931C123.255 8.78931 124.531 9.1716 125.501 9.93619C126.47 10.6871 126.989 11.7384 127.057 13.0901H123.268C123.241 12.6259 123.071 12.2641 122.756 12.0047C122.442 11.7316 122.04 11.5951 121.548 11.5951C121.125 11.5951 120.784 11.7111 120.524 11.9432C120.265 12.1617 120.135 12.4825 120.135 12.9058C120.135 13.37 120.353 13.7318 120.79 13.9912C121.227 14.2506 121.91 14.5305 122.838 14.8309C123.767 15.1449 124.518 15.4453 125.091 15.732C125.678 16.0188 126.183 16.4352 126.607 16.9813C127.03 17.5275 127.242 18.2306 127.242 19.0908C127.242 19.91 127.03 20.6541 126.607 21.3231C126.197 21.9921 125.596 22.5246 124.804 22.9205C124.013 23.3165 123.077 23.5145 121.999 23.5145ZM142.376 0.0937538C141.043 0.0937538 139.963 1.17414 139.963 2.50687V29.6806C139.963 31.0134 141.043 32.0938 142.376 32.0938H169.55C170.883 32.0938 171.963 31.0134 171.963 29.6806V2.50687C171.963 1.17414 170.883 0.0937538 169.55 0.0937538H142.376ZM151.346 22.5724C152.479 23.2004 153.721 23.5145 155.073 23.5145C156.425 23.5145 157.66 23.2004 158.78 22.5724C159.9 21.9443 160.787 21.0705 161.442 19.9509C162.098 18.8177 162.425 17.5479 162.425 16.1416C162.425 14.7353 162.098 13.4724 161.442 12.3528C160.801 11.2333 159.913 10.3594 158.78 9.73139C157.66 9.10334 156.425 8.78931 155.073 8.78931C153.721 8.78931 152.479 9.10334 151.346 9.73139C150.226 10.3594 149.332 11.2333 148.663 12.3528C148.007 13.4724 147.68 14.7353 147.68 16.1416C147.68 17.5479 148.007 18.8177 148.663 19.9509C149.332 21.0705 150.226 21.9443 151.346 22.5724ZM157.817 19.1727C157.135 19.9373 156.22 20.3196 155.073 20.3196C153.913 20.3196 152.984 19.9441 152.288 19.1932C151.605 18.4286 151.264 17.4114 151.264 16.1416C151.264 14.8582 151.605 13.8411 152.288 13.0901C152.984 12.3392 153.913 11.9637 155.073 11.9637C156.22 11.9637 157.135 12.346 157.817 13.1106C158.514 13.8615 158.862 14.8719 158.862 16.1416C158.862 17.3978 158.514 18.4081 157.817 19.1727ZM174.953 2.50687C174.953 1.17414 176.034 0.0937538 177.366 0.0937538H204.54C205.873 0.0937538 206.953 1.17414 206.953 2.50687V29.6806C206.953 31.0134 205.873 32.0938 204.54 32.0938H177.366C176.034 32.0938 174.953 31.0134 174.953 29.6806V2.50687ZM190.606 20.6677H195.194V23.3711H187.104V8.99411H190.606V20.6677Z" fill="white"/>
</svg>
